<svg width="25" height="25" viewBox="0 0 25 25" fill="none" xmlns="http://www.w3.org/2000/svg">
<path d="M5.60571 19.3943C4.74283 18.5314 5.31514 16.7198 4.87595 15.6584C4.42066 14.558 2.75 13.6723 2.75 12.5C2.75 11.3276 4.42067 10.442 4.87595 9.34164C5.31515 8.28015 4.74283 6.46858 5.60571 5.60571C6.46858 4.74283 8.28016 5.31514 9.34165 4.87595C10.442 4.42066 11.3277 2.75 12.5 2.75C13.6724 2.75 14.558 4.42067 15.6584 4.87595C16.7199 5.31515 18.5314 4.74283 19.3943 5.60571C20.2572 6.46858 19.6849 8.28016 20.1241 9.34165C20.5793 10.442 22.25 11.3277 22.25 12.5C22.25 13.6724 20.5793 14.558 20.124 15.6584C19.6848 16.7199 20.2572 18.5314 19.3943 19.3943C18.5314 20.2572 16.7198 19.6849 15.6584 20.1241C14.558 20.5793 13.6723 22.25 12.5 22.25C11.3276 22.25 10.442 20.5793 9.34164 20.124C8.28015 19.6848 6.46858 20.2572 5.60571 19.3943Z" stroke="white" stroke-width="2" stroke-linecap="round" stroke-linejoin="round"/>
<path d="M16.625 10.25L11.125 15.5L8.375 12.875" stroke="white" stroke-width="2" stroke-linecap="round" stroke-linejoin="round"/>
</svg>
