<svg width="82" height="77" viewBox="0 0 82 77" fill="none" xmlns="http://www.w3.org/2000/svg">
<path d="M41.4885 12.132C41.4885 11.1638 41.8743 10.1965 42.5476 9.47773C43.0293 8.96322 43.8709 8.34962 45.1416 8.34962C46.709 8.34962 48.0964 9.39082 48.5964 10.9396L57.0967 37.3156C57.2676 37.8458 57.2676 38.4185 57.0967 38.9487L53.2286 50.9503L69.711 50.9503C76.4989 50.9486 82.0002 45.2098 82.0002 38.1308C82.0002 34.5909 80.6245 31.3873 78.4013 29.0677C76.1772 26.748 73.1058 25.3131 69.7118 25.3131H65.3687L68.0594 33.6609H69.7118C70.8559 33.6609 71.9317 34.1259 72.7416 34.9707C73.5507 35.8146 73.9965 36.9375 73.9965 38.1308C73.9965 39.3241 73.5507 40.4462 72.7416 41.2909C71.9325 42.1349 70.8559 42.6007 69.7118 42.6007H64.3646L65.5412 38.9478C65.627 38.6827 65.6695 38.4063 65.6695 38.1308C65.6695 37.8553 65.627 37.5798 65.5421 37.3147L56.1843 8.27922C54.5894 3.3322 50.1455 2.18689e-07 45.1425 0C41.8185 -1.45295e-07 38.9045 1.41927 36.8213 3.64508C34.7381 5.87089 33.4857 8.90325 33.4857 12.1312C33.4857 13.4096 33.6823 14.7194 34.1023 16.0205L35.9197 21.661H44.3633L41.6885 13.361C41.5568 12.9516 41.4885 12.5379 41.4885 12.132Z" fill="white"/>
<path d="M51.941 73.9809C53.8767 72.5295 55.3858 70.4601 56.1841 67.9866L60.4963 54.604H52.0527L48.597 65.3263C48.0979 66.875 46.7096 67.9162 45.1422 67.9162C43.8715 67.9162 43.0299 67.3026 42.5482 66.7881C41.8741 66.0685 41.4883 65.1012 41.4883 64.1338C41.4883 63.728 41.5558 63.3143 41.6875 62.9049L49.4078 38.9511C49.4928 38.6861 49.5353 38.4105 49.5353 38.1342C49.5353 37.8578 49.4928 37.5831 49.4078 37.3172L45.5406 25.3164L12.2892 25.3164C5.50216 25.3164 3.09432e-07 31.0552 0 38.1342C-1.54735e-07 41.6741 1.37575 44.8777 3.59978 47.1973C5.82298 49.517 8.89612 50.9519 12.2892 50.9519H33.4013L36.0911 42.604L12.2884 42.604C11.1443 42.604 10.0677 42.1391 9.2586 41.2943C8.44948 40.4504 8.00368 39.3275 8.00368 38.1342C8.00368 36.9409 8.44865 35.8188 9.2586 34.974C10.0677 34.1301 11.1443 33.6643 12.2884 33.6643L39.7859 33.6643L40.9625 37.3172C41.0483 37.5823 41.0908 37.8578 41.0908 38.1342C41.0908 38.4105 41.0483 38.6852 40.9625 38.9511L34.1004 60.2445C33.6804 61.5456 33.4838 62.8554 33.4838 64.1338C33.4838 70.5888 38.4943 76.2659 45.1414 76.2659C47.6429 76.2659 50.0053 75.4315 51.9402 73.9818L51.941 73.9809Z" fill="white"/>
</svg>
