<svg width="158" height="51" viewBox="0 0 158 51" fill="none" xmlns="http://www.w3.org/2000/svg">
<g clip-path="url(#clip0_1085_47)">
<path d="M7.56282 25.1963C6.95927 25.1963 6.35626 24.9563 5.9082 24.5376C5.58746 24.238 5.20496 23.7146 5.20496 22.9242C5.20496 21.9494 5.85402 21.0865 6.81949 20.7755L23.2617 15.4888C23.5922 15.3825 23.9492 15.3825 24.2797 15.4888L31.7612 17.8945V7.64331C31.7602 3.42156 28.1827 0 23.7699 0C21.5632 0 19.5661 0.855649 18.1201 2.23837C16.6741 3.62161 15.7796 5.53192 15.7796 7.6428V10.344L20.9834 8.67051V7.6428C20.9834 6.93122 21.2733 6.26215 21.7999 5.7584C22.326 5.25517 23.026 4.9779 23.7699 4.9779C24.5137 4.9779 25.2132 5.25517 25.7398 5.7584C26.2659 6.26163 26.5563 6.93122 26.5563 7.6428V10.9685L24.2791 10.2367C24.1139 10.1833 23.9416 10.1569 23.7699 10.1569C23.5981 10.1569 23.4264 10.1833 23.2611 10.2362L5.16107 16.0562C2.07722 17.0482 0 19.8121 0 22.9237C0 24.9911 0.88474 26.8034 2.27226 28.0991C3.65978 29.3947 5.55008 30.1737 7.56228 30.1737C8.35925 30.1737 9.17572 30.0514 9.98678 29.7902L13.503 28.6598V23.4083L8.32891 25.0719C8.07372 25.1538 7.81583 25.1958 7.56282 25.1958V25.1963Z" fill="white"/>
<path d="M46.1176 18.6953C45.2128 17.4913 43.9228 16.5528 42.3809 16.0563L34.0384 13.3743V18.6258L40.7225 20.775C41.6879 21.0855 42.337 21.9489 42.337 22.9237C42.337 23.7141 41.9545 24.2375 41.6337 24.5371C41.1851 24.9564 40.5821 25.1963 39.9791 25.1963C39.7261 25.1963 39.4682 25.1543 39.213 25.0725L24.2808 20.2708C24.1156 20.2179 23.9438 20.1915 23.7715 20.1915C23.5993 20.1915 23.428 20.2179 23.2623 20.2708L22.1131 20.6403L20.9851 21.0026L15.7812 22.676V43.3567C15.7812 47.5779 19.3587 51 23.7715 51C25.9782 51 27.9753 50.1444 29.4213 48.7611C30.8673 47.3784 31.7618 45.4671 31.7618 43.3567V30.226L26.558 28.5531V43.3572C26.558 44.0688 26.2681 44.7384 25.7415 45.2416C25.2154 45.7449 24.5154 46.0221 23.7715 46.0221C23.0277 46.0221 22.3282 45.7454 21.8016 45.2416C21.2755 44.7384 20.9851 44.0688 20.9851 43.3572V26.2551L23.2623 25.5233C23.4275 25.47 23.5993 25.4435 23.7715 25.4435C23.9438 25.4435 24.115 25.47 24.2808 25.5233L37.5546 29.7912C38.3657 30.0524 39.1822 30.1747 39.9791 30.1747C44.003 30.1747 47.5419 27.0584 47.5419 22.9243C47.5419 21.3684 47.0218 19.8992 46.1181 18.6958L46.1176 18.6953Z" fill="white"/>
<path d="M78.3672 20.0785H84.3491V22.0862C85.1184 20.5133 87.9173 20.0453 89.8764 20.0785V26.1017C87.2877 25.5663 84.6644 27.3398 84.6644 30.2177V38.2487H78.3677V20.0785H78.3672Z" fill="white"/>
<path d="M91.0938 15.8287C91.0938 14.1558 92.5279 12.7502 94.2773 12.7502C96.0267 12.7502 97.4955 14.1558 97.4955 15.8287C97.4955 17.4016 96.0614 18.874 94.2773 18.874C92.4932 18.874 91.0938 17.4016 91.0938 15.8287ZM91.2687 20.0785H97.3205V38.2487H91.2687V20.0785Z" fill="white"/>
<path d="M105.023 38.0813V44.3051H98.7266V29.6818C98.7266 24.4619 103.134 20.2122 108.591 20.2122C114.049 20.2122 118.421 24.4619 118.421 29.6818C118.421 34.9017 114.014 39.0846 108.591 39.0846C107.262 39.0846 106.003 38.7167 105.023 38.0808V38.0813ZM105.023 29.6823C105.023 31.5564 106.598 33.0619 108.591 33.0619C110.585 33.0619 112.124 31.5559 112.124 29.6823C112.124 27.8088 110.551 26.2359 108.591 26.2359C106.632 26.2359 105.023 27.7751 105.023 29.6823Z" fill="white"/>
<path d="M119.82 29.247V13.821H126.117V29.1133C126.117 30.8531 127.341 32.0912 129.056 32.0912V38.2482C123.739 38.2482 119.82 34.4001 119.82 29.2465V29.247Z" fill="white"/>
<path d="M130.508 15.8287C130.508 14.1558 131.942 12.7502 133.691 12.7502C135.441 12.7502 136.91 14.1558 136.91 15.8287C136.91 17.4016 135.475 18.874 133.691 18.874C131.907 18.874 130.508 17.4016 130.508 15.8287ZM130.683 20.0785H136.735V38.2487H130.683V20.0785Z" fill="white"/>
<path d="M138.305 29.1802C138.305 23.9934 142.712 19.7773 148.17 19.7773C153.627 19.7773 157.999 23.9934 157.999 29.1802C157.999 34.3669 153.592 38.6167 148.17 38.6167C142.747 38.6167 138.305 34.4006 138.305 29.1802ZM151.703 29.1802C151.703 27.3061 150.128 25.8006 148.17 25.8006C146.211 25.8006 144.601 27.3061 144.601 29.1802C144.601 31.0542 146.176 32.5934 148.17 32.5934C150.163 32.5934 151.703 31.0874 151.703 29.1802Z" fill="white"/>
<path d="M77.1421 17.0098L71.6153 16.3444V12.7502H65.0033V16.3444L59.4766 17.0098V22.9247L65.0033 22.2593V38.2487H71.6153V22.2593L77.1421 22.9247V17.0098Z" fill="white"/>
</g>
<defs>
<clipPath id="clip0_1085_47">
<rect width="158" height="51" fill="white"/>
</clipPath>
</defs>
</svg>
