<svg width="174" height="38" viewBox="0 0 174 38" fill="none" xmlns="http://www.w3.org/2000/svg">
<g clip-path="url(#clip0_9_15975)">
<path d="M0.0742188 15.2488C0.895701 14.5965 1.88994 14.3499 2.81596 13.9634C5.10092 13.0094 7.40392 12.0988 9.6979 11.1664C12.8355 9.89106 15.9704 8.60909 19.1084 7.33493C21.5265 6.3531 23.9487 5.38144 26.3672 4.40066C29.4142 3.16504 32.46 1.92646 35.5043 0.68448C35.9361 0.508331 36.3571 0.305762 36.7978 0.0948202C37.2273 0.0742188 37.6422 0.0742188 38.0742 0.0742188C38.0742 0.446564 38.0742 0.819169 38.0742 1.22675C37.6189 2.20412 37.256 3.18555 36.8585 4.15216C35.7585 6.8267 34.6654 9.50403 33.574 12.1821C32.6778 14.3814 31.7917 16.5848 30.8945 18.7837C29.7601 21.5639 28.6198 24.3417 27.4802 27.1198C27.0691 28.1219 26.6546 29.1226 26.2382 30.1224C26.0131 30.663 25.5342 30.8539 25.0067 30.5661C24.0663 30.053 23.1433 29.508 22.2139 28.9748C20.9423 28.2453 19.6675 27.521 18.404 26.7774C18.1865 26.6494 18.0889 26.7011 17.9541 26.8747C16.7695 28.4004 15.58 29.9224 14.3873 31.4418C14.1747 31.7126 13.9526 31.9781 13.7135 32.2254C13.3025 32.6505 12.617 32.5124 12.3708 31.9761C11.8413 30.8227 11.3063 29.6717 10.771 28.521C9.76251 26.3531 8.75101 24.1867 7.74377 22.0183C7.55196 21.6054 7.33402 21.1985 7.19873 20.7668C6.9801 20.069 6.38485 19.8214 5.83353 19.5045C4.49811 18.737 3.16463 17.966 1.83122 17.195C1.44758 16.9731 1.07371 16.7332 0.682089 16.5268C0.456836 16.408 0.280562 16.244 0.091454 16.0491C0.0742187 15.7818 0.0742188 15.5323 0.0742188 15.2488ZM30.5977 8.51657C29.5228 9.55531 28.5022 10.6482 27.3983 11.6591C26.2696 12.6927 25.2299 13.8192 24.1166 14.8721C22.2853 16.604 20.5192 18.4047 18.7214 20.1721C17.7795 21.0982 16.8276 22.0141 15.8835 22.938C15.7917 23.0279 15.6554 23.0954 15.6593 23.2895C18.7665 25.0874 21.8851 26.8919 25.0577 28.7277C28.3613 20.6347 31.6422 12.5975 34.923 4.56034C34.8911 4.53882 34.8591 4.51729 34.8271 4.49576C33.3181 5.70385 32.1075 7.23206 30.5977 8.51657ZM24.3547 10.0017C22.1088 11.4248 19.8631 12.8482 17.617 14.271C16.2134 15.1601 14.8094 16.0486 13.4053 16.9371C11.8967 17.8916 10.3882 18.8463 8.87847 19.7991C8.71699 19.901 8.62895 19.9933 8.73103 20.2114C9.30577 21.4394 9.86251 22.6757 10.4291 23.9076C11.0056 25.1612 11.5822 26.4149 12.1686 27.664C12.3063 27.9572 12.4246 28.267 12.6691 28.5631C12.8165 28.1505 12.8339 27.7704 12.8833 27.3999C13.0472 26.1702 13.1832 24.9366 13.3566 23.7084C13.4013 23.3919 13.4089 23.0562 13.6895 22.7953C14.8924 21.6765 16.011 20.4716 17.2085 19.3452C18.5212 18.1104 19.7596 16.7975 21.0823 15.571C22.0057 14.7148 22.8511 13.7793 23.7779 12.9233C24.9929 11.8011 26.115 10.5814 27.3341 9.45983C28.1976 8.66543 29.0114 7.81569 29.825 6.96919C30.1116 6.67103 30.5161 6.48987 30.7353 6.03813C30.0143 6.36814 29.4228 6.80678 28.8022 7.19317C27.3289 8.11045 25.8644 9.04178 24.3547 10.0017ZM19.9805 8.74913C14.239 11.0844 8.49746 13.4197 2.67834 15.7865C2.95857 15.9446 3.14055 16.0454 3.3207 16.1493C4.65363 16.9183 5.98684 17.6869 7.31822 18.4585C7.5236 18.5776 7.70548 18.6211 7.93168 18.4754C9.51734 17.4541 11.1081 16.4406 12.7012 15.4309C14.8459 14.0717 16.9949 12.7194 19.1407 11.3621C21.7867 9.6884 24.4344 8.01745 27.0739 6.33359C27.569 6.01771 28.1067 5.75659 28.521 5.31692C27.2327 5.80716 25.96 6.32636 24.6861 6.84245C23.1352 7.47078 21.5832 8.09648 19.9805 8.74913ZM16.1515 26.5096C16.2873 26.2638 16.5488 26.1033 16.6363 25.7795C16.0832 25.4359 15.5265 25.0856 14.888 24.7807C14.707 26.1035 14.5318 27.3849 14.3565 28.6663C14.3784 28.679 14.4003 28.6918 14.4222 28.7045C14.9861 27.9855 15.5499 27.2666 16.1515 26.5096Z" fill="white"/>
<path d="M0.0742188 36.9212C0.313578 36.7262 0.494897 36.4784 0.835604 36.4825C1.15796 36.4863 1.4328 36.5655 1.5772 36.8597C1.7185 37.1476 1.71667 37.4531 1.52283 37.7329C1.45772 37.8269 1.31869 37.9038 1.46974 38.0577C1.02035 38.0738 0.556326 38.0738 0.0742188 38.0738C0.0742188 37.7014 0.0742188 37.3288 0.0742188 36.9212Z" fill="white"/>
<path d="M12.7256 38.074C12.4642 37.821 12.3179 37.5487 12.3638 37.1843C12.41 36.8178 12.675 36.5696 13.0901 36.5646C13.5817 36.5586 13.8691 36.773 13.9042 37.1612C13.9329 37.4785 13.8861 37.7717 13.665 38.0484C13.3573 38.074 13.0586 38.074 12.7256 38.074Z" fill="white"/>
<path d="M7.05422 32.2889C5.92939 33.4206 4.82359 34.534 3.71661 35.6462C3.41848 35.9457 3.05448 36.0337 2.66211 35.9029C2.10421 35.7167 2.0122 34.935 2.49146 34.4497C3.24691 33.6848 4.014 32.9313 4.77489 32.1718C5.79809 31.1504 6.82231 30.13 7.84069 29.1038C8.03906 28.9039 8.26316 28.7551 8.5372 28.7136C8.85468 28.6654 9.1249 28.7847 9.30633 29.0518C9.4963 29.3315 9.48899 29.6295 9.32957 29.9246C9.13136 30.2915 8.79703 30.538 8.5157 30.8298C8.04405 31.3189 7.55471 31.791 7.05422 32.2889Z" fill="white"/>
<path d="M17.4818 34.1807C16.9842 34.6805 16.5044 35.1611 16.0267 35.6437C15.8673 35.8047 15.6812 35.9201 15.4651 35.9848C15.1634 36.0752 14.9082 35.9837 14.6889 35.7724C14.4754 35.5667 14.4098 35.3102 14.4757 35.0298C14.5362 34.7718 14.6961 34.5673 14.8825 34.3815C15.9754 33.2919 17.0694 32.2034 18.1559 31.1075C18.4439 30.8171 18.7863 30.7287 19.17 30.7842C19.6211 30.8495 19.8722 31.4961 19.6213 31.9471C19.5389 32.0952 19.4243 32.2305 19.3046 32.352C18.7069 32.959 18.1025 33.5595 17.4818 34.1807Z" fill="white"/>
<path d="M4.15821 25.0137C3.9497 25.2074 3.79011 25.4147 3.55823 25.5448C3.22233 25.7333 2.78628 25.7042 2.53385 25.4654C2.27846 25.2237 2.22918 24.7493 2.43297 24.4115C2.49609 24.3069 2.57296 24.2071 2.65894 24.1203C3.24194 23.5321 3.82704 22.9459 4.41614 22.3637C4.58232 22.1995 4.75991 22.0419 5.01032 22.0202C5.36777 21.9893 5.70751 22.0052 5.90443 22.3785C6.05858 22.6708 5.97443 23.1847 5.6957 23.4719C5.19643 23.9865 4.68393 24.4882 4.15821 25.0137Z" fill="white"/>
<path d="M1.72706 26.7553C1.72425 26.9823 1.77051 27.1848 1.69694 27.372C1.56147 27.7166 1.1347 27.8817 0.691977 27.775C0.32189 27.6858 0.13153 27.3065 0.198953 26.7928C0.241703 26.4671 0.52442 26.2662 0.91169 26.2429C1.30184 26.2193 1.57939 26.3504 1.72706 26.7553Z" fill="white"/>
</g>
<path d="M56.108 18.836C55.5853 17.9027 55.324 17.1467 55.324 16.568C55.324 15.9707 55.4827 15.588 55.8 15.42C56.864 14.9533 58.32 14.72 60.168 14.72C62.0347 14.72 63.3507 15.1587 64.116 16.036C64.8813 16.8947 65.264 18.1733 65.264 19.872V24.296H66.216C66.5333 24.296 66.776 24.4827 66.944 24.856C67.1307 25.2293 67.224 25.7427 67.224 26.396C67.224 27.0493 67.056 27.6933 66.72 28.328C66.4027 28.9627 65.964 29.28 65.404 29.28C64.396 29.28 63.584 29.0093 62.968 28.468C62.688 28.244 62.4733 27.9733 62.324 27.656C61.4653 28.7387 60.1307 29.28 58.32 29.28C56.9573 29.28 55.8093 28.7947 54.876 27.824C53.9427 26.8533 53.476 25.7053 53.476 24.38C53.476 21.3373 55.296 19.816 58.936 19.816H60.476V19.536C60.476 19.0507 60.392 18.7427 60.224 18.612C60.0747 18.4627 59.7107 18.388 59.132 18.388C58.4227 18.388 57.4147 18.5373 56.108 18.836ZM58.348 23.988C58.348 24.3987 58.46 24.716 58.684 24.94C58.908 25.1453 59.188 25.248 59.524 25.248C59.8787 25.248 60.196 25.108 60.476 24.828V22.672H59.692C58.796 22.672 58.348 23.1107 58.348 23.988ZM73.9328 28.832C73.9328 28.9813 73.0742 29.056 71.3568 29.056C69.6582 29.056 68.8088 28.9907 68.8088 28.86V15.112C68.8088 14.9813 69.6582 14.916 71.3568 14.916C73.0742 14.916 73.9328 14.972 73.9328 15.084V28.832ZM73.9328 13.432C73.9328 13.5627 73.0742 13.628 71.3568 13.628C69.6582 13.628 68.8088 13.572 68.8088 13.46V9.428C68.8088 9.24133 69.6582 9.148 71.3568 9.148C73.0742 9.148 73.9328 9.204 73.9328 9.316V13.432ZM82.9051 28.832C82.9051 29.056 82.1211 29.168 80.5531 29.168C78.6864 29.0933 77.7531 28.972 77.7531 28.804V18.892H76.3251C75.9517 18.892 75.7651 18.248 75.7651 16.96C75.7651 16.624 75.7931 16.2133 75.8491 15.728C75.9237 15.2427 76.0637 15 76.2691 15H77.7531V12.536C77.7531 12.1627 78.5371 11.976 80.1051 11.976C81.6917 11.976 82.4851 12.1253 82.4851 12.424V14.216L82.5131 15H84.8931C85.2104 15 85.3691 15.6533 85.3691 16.96C85.3691 18.2667 85.2104 18.92 84.8931 18.92H82.9051V28.832ZM91.8977 28.832C91.8977 28.9813 91.039 29.056 89.3217 29.056C87.623 29.056 86.7737 28.9907 86.7737 28.86V15.112C86.7737 14.9813 87.623 14.916 89.3217 14.916C91.039 14.916 91.8977 14.972 91.8977 15.084V28.832ZM91.8977 13.432C91.8977 13.5627 91.039 13.628 89.3217 13.628C87.623 13.628 86.7737 13.572 86.7737 13.46V9.428C86.7737 9.24133 87.623 9.148 89.3217 9.148C91.039 9.148 91.8977 9.204 91.8977 9.316V13.432ZM100.282 28.832C100.282 28.9627 99.6099 29.028 98.2659 29.028C96.3993 28.972 95.4659 28.8693 95.4659 28.72V19.648H94.7379C94.2526 19.648 93.9353 19.2373 93.7859 18.416C93.7486 18.1733 93.7299 17.9307 93.7299 17.688C93.7299 17.1093 93.8419 16.5307 94.0659 15.952C94.4019 15.1307 94.9246 14.72 95.6339 14.72C96.3433 14.72 96.9779 14.888 97.5379 15.224C98.0979 15.56 98.4713 15.896 98.6579 16.232C99.8339 15.224 101.234 14.72 102.858 14.72C104.482 14.72 105.658 15.1587 106.386 16.036C107.114 16.9133 107.478 18.3507 107.478 20.348V28.748C107.478 28.972 106.675 29.084 105.07 29.084C103.483 29.084 102.69 28.972 102.69 28.748V20.656C102.69 19.7227 102.363 19.256 101.71 19.256C101.523 19.256 101.262 19.34 100.926 19.508C100.59 19.6573 100.375 19.7693 100.282 19.844V28.832ZM120.436 28.244C119.26 28.9347 117.748 29.28 115.9 29.28C114.052 29.28 112.493 28.6547 111.224 27.404C109.954 26.1347 109.32 24.3893 109.32 22.168C109.32 19.928 109.926 18.1267 111.14 16.764C112.372 15.4013 113.921 14.72 115.788 14.72C117.654 14.72 119.092 15.196 120.1 16.148C121.126 17.1 121.64 18.2573 121.64 19.62C121.64 22.644 119.904 24.156 116.432 24.156H114.5C114.5 24.716 114.649 25.108 114.948 25.332C115.265 25.5373 115.722 25.64 116.32 25.64C117.626 25.64 118.868 25.3413 120.044 24.744C120.062 24.7253 120.146 24.856 120.296 25.136C120.744 25.9387 120.968 26.62 120.968 27.18C120.968 27.7213 120.79 28.076 120.436 28.244ZM116.936 20.152C116.936 19.368 116.553 18.976 115.788 18.976C115.433 18.976 115.125 19.088 114.864 19.312C114.621 19.5173 114.5 19.8253 114.5 20.236V21.104H116.012C116.628 21.104 116.936 20.7867 116.936 20.152ZM129.601 28.972C129.601 29.1027 128.752 29.168 127.053 29.168C125.354 29.1307 124.505 29.056 124.505 28.944V19.648H123.749C123.45 19.648 123.208 19.4707 123.021 19.116C122.853 18.7427 122.769 18.2853 122.769 17.744C122.769 15.728 123.366 14.72 124.561 14.72C125.401 14.72 126.101 14.9813 126.661 15.504C127.221 16.008 127.501 16.5867 127.501 17.24C127.893 16.4747 128.416 15.868 129.069 15.42C129.741 14.9533 130.422 14.72 131.113 14.72C132.196 14.72 132.849 15 133.073 15.56C133.129 15.7093 133.157 15.9333 133.157 16.232C133.157 16.512 133.064 17.0253 132.877 17.772C132.709 18.5187 132.532 19.06 132.345 19.396C132.158 19.732 132.046 19.9 132.009 19.9C131.972 19.9 131.794 19.8347 131.477 19.704C131.178 19.5547 130.908 19.48 130.665 19.48C129.956 19.48 129.601 20.04 129.601 21.16V28.972ZM136.335 18.836C135.812 17.9027 135.551 17.1467 135.551 16.568C135.551 15.9707 135.709 15.588 136.027 15.42C137.091 14.9533 138.547 14.72 140.395 14.72C142.261 14.72 143.577 15.1587 144.343 16.036C145.108 16.8947 145.491 18.1733 145.491 19.872V24.296H146.443C146.76 24.296 147.003 24.4827 147.171 24.856C147.357 25.2293 147.451 25.7427 147.451 26.396C147.451 27.0493 147.283 27.6933 146.947 28.328C146.629 28.9627 146.191 29.28 145.631 29.28C144.623 29.28 143.811 29.0093 143.195 28.468C142.915 28.244 142.7 27.9733 142.551 27.656C141.692 28.7387 140.357 29.28 138.547 29.28C137.184 29.28 136.036 28.7947 135.103 27.824C134.169 26.8533 133.703 25.7053 133.703 24.38C133.703 21.3373 135.523 19.816 139.163 19.816H140.703V19.536C140.703 19.0507 140.619 18.7427 140.451 18.612C140.301 18.4627 139.937 18.388 139.359 18.388C138.649 18.388 137.641 18.5373 136.335 18.836ZM138.575 23.988C138.575 24.3987 138.687 24.716 138.911 24.94C139.135 25.1453 139.415 25.248 139.751 25.248C140.105 25.248 140.423 25.108 140.703 24.828V22.672H139.919C139.023 22.672 138.575 23.1107 138.575 23.988ZM155.167 28.972C155.167 29.1027 154.318 29.168 152.619 29.168C150.921 29.1307 150.071 29.056 150.071 28.944V19.648H149.315C149.017 19.648 148.774 19.4707 148.587 19.116C148.419 18.7427 148.335 18.2853 148.335 17.744C148.335 15.728 148.933 14.72 150.127 14.72C150.967 14.72 151.667 14.9813 152.227 15.504C152.787 16.008 153.067 16.5867 153.067 17.24C153.459 16.4747 153.982 15.868 154.635 15.42C155.307 14.9533 155.989 14.72 156.679 14.72C157.762 14.72 158.415 15 158.639 15.56C158.695 15.7093 158.723 15.9333 158.723 16.232C158.723 16.512 158.63 17.0253 158.443 17.772C158.275 18.5187 158.098 19.06 157.911 19.396C157.725 19.732 157.613 19.9 157.575 19.9C157.538 19.9 157.361 19.8347 157.043 19.704C156.745 19.5547 156.474 19.48 156.231 19.48C155.522 19.48 155.167 20.04 155.167 21.16V28.972ZM159.157 15.14C159.157 14.9347 160.006 14.832 161.705 14.832C163.422 14.832 164.309 14.9253 164.365 15.112L166.381 21.72L168.313 15.056C168.388 14.9067 168.966 14.832 170.049 14.832C172.532 14.832 173.717 14.9533 173.605 15.196L167.025 33.928C167.006 34.04 166.493 34.096 165.485 34.096C164.496 34.096 163.572 34.0587 162.713 33.984C161.854 33.928 161.444 33.8533 161.481 33.76L163.917 27.88L159.157 15.14Z" fill="white"/>
<defs>
<clipPath id="clip0_9_15975">
<rect width="38" height="38" fill="white"/>
</clipPath>
</defs>
</svg>
