<svg width="43" height="45" viewBox="0 0 43 45" fill="none" xmlns="http://www.w3.org/2000/svg">
<path d="M6.7491 22.232C6.21048 22.232 5.67236 22.0203 5.27251 21.6508C4.98628 21.3865 4.64493 20.9246 4.64493 20.2273C4.64493 19.3671 5.22416 18.6057 6.08574 18.3314L20.7588 13.6665C21.0538 13.5728 21.3724 13.5728 21.6673 13.6665L28.3439 15.7893V6.7441C28.3429 3.01902 25.1504 0 21.2123 0C19.2431 0 17.4609 0.754984 16.1705 1.97503C14.88 3.19554 14.0818 4.88111 14.0818 6.74364V9.12704L18.7257 7.65045V6.74364C18.7257 6.11579 18.9844 5.52543 19.4544 5.08094C19.9238 4.63691 20.5485 4.39226 21.2123 4.39226C21.8762 4.39226 22.5004 4.63691 22.9703 5.08094C23.4398 5.52497 23.699 6.11579 23.699 6.74364V9.67807L21.6668 9.03238C21.5194 8.98528 21.3656 8.96195 21.2123 8.96195C21.0591 8.96195 20.9058 8.98528 20.7583 9.03192L4.60577 14.1673C1.85372 15.0425 0 17.4813 0 20.2268C0 22.0509 0.789546 23.6501 2.02778 24.7933C3.266 25.9365 4.95292 26.6238 6.74861 26.6238C7.45983 26.6238 8.18846 26.5159 8.91225 26.2854L12.0501 25.2881V20.6544L7.43276 22.1223C7.20503 22.1945 6.97489 22.232 6.7491 22.232Z" fill="white"/>
<path d="M41.1538 16.4958C40.3464 15.4335 39.1952 14.6053 37.8192 14.1673L30.3743 11.8008V16.4345L36.3392 18.3309C37.2008 18.6048 37.78 19.3666 37.78 20.2268C37.78 20.9242 37.4387 21.386 37.1524 21.6503C36.7521 22.0203 36.214 22.232 35.6759 22.232C35.4501 22.232 35.2199 22.195 34.9922 22.1227L21.6666 17.8859C21.5191 17.8393 21.3659 17.816 21.2121 17.816C21.0584 17.816 20.9056 17.8393 20.7576 17.8859L14.0815 20.0082V38.2559C14.0815 41.9805 17.2741 45 21.2121 45C23.1814 45 24.9636 44.245 26.254 43.0245C27.5444 41.8044 28.3427 40.118 28.3427 38.2559V26.67L23.6987 25.1939V38.2563C23.6987 38.8842 23.4401 39.475 22.9701 39.919C22.5006 40.3631 21.876 40.6077 21.2121 40.6077C20.5483 40.6077 19.9241 40.3635 19.4541 39.919C18.9847 39.475 18.7255 38.8842 18.7255 38.2563V23.1662L20.7576 22.5206C20.9051 22.4735 21.0584 22.4501 21.2121 22.4501C21.3659 22.4501 21.5187 22.4735 21.6666 22.5206L33.5122 26.2863C34.236 26.5168 34.9646 26.6247 35.6759 26.6247C39.2668 26.6247 42.4249 23.875 42.4249 20.2272C42.4249 18.8545 41.9603 17.5576 41.1538 16.4958Z" fill="white"/>
</svg>
