<svg width="38" height="38" viewBox="0 0 38 38" fill="none" xmlns="http://www.w3.org/2000/svg">
<g clip-path="url(#clip0_9_15976)">
<path d="M0.0742188 15.2488C0.895701 14.5965 1.88994 14.3499 2.81596 13.9634C5.10092 13.0094 7.40392 12.0988 9.6979 11.1664C12.8355 9.89106 15.9704 8.60909 19.1084 7.33493C21.5265 6.3531 23.9487 5.38144 26.3672 4.40066C29.4142 3.16504 32.46 1.92646 35.5043 0.68448C35.9361 0.508331 36.3571 0.305762 36.7978 0.0948202C37.2273 0.0742188 37.6422 0.0742188 38.0742 0.0742188C38.0742 0.446564 38.0742 0.819169 38.0742 1.22675C37.6189 2.20412 37.256 3.18555 36.8585 4.15216C35.7585 6.8267 34.6654 9.50403 33.574 12.1821C32.6778 14.3814 31.7917 16.5848 30.8945 18.7837C29.7601 21.5639 28.6198 24.3417 27.4802 27.1198C27.0691 28.1219 26.6546 29.1226 26.2382 30.1224C26.0131 30.663 25.5342 30.8539 25.0067 30.5661C24.0663 30.053 23.1433 29.508 22.2139 28.9748C20.9423 28.2453 19.6675 27.521 18.404 26.7774C18.1865 26.6494 18.0889 26.7011 17.9541 26.8747C16.7695 28.4004 15.58 29.9224 14.3873 31.4418C14.1747 31.7126 13.9526 31.9781 13.7135 32.2254C13.3025 32.6505 12.617 32.5124 12.3708 31.9761C11.8413 30.8227 11.3063 29.6717 10.771 28.521C9.76251 26.3531 8.75101 24.1867 7.74377 22.0183C7.55196 21.6054 7.33402 21.1985 7.19873 20.7668C6.9801 20.069 6.38485 19.8214 5.83353 19.5045C4.49811 18.737 3.16463 17.966 1.83122 17.195C1.44758 16.9731 1.07371 16.7332 0.682089 16.5268C0.456836 16.408 0.280562 16.244 0.091454 16.0491C0.0742187 15.7818 0.0742188 15.5323 0.0742188 15.2488ZM30.5977 8.51657C29.5228 9.55531 28.5022 10.6482 27.3983 11.6591C26.2696 12.6927 25.2299 13.8192 24.1166 14.8721C22.2853 16.604 20.5192 18.4047 18.7214 20.1721C17.7795 21.0982 16.8276 22.0141 15.8835 22.938C15.7917 23.0279 15.6554 23.0954 15.6593 23.2895C18.7665 25.0874 21.8851 26.8919 25.0577 28.7277C28.3613 20.6347 31.6422 12.5975 34.923 4.56034C34.8911 4.53882 34.8591 4.51729 34.8271 4.49576C33.3181 5.70385 32.1075 7.23206 30.5977 8.51657ZM24.3547 10.0017C22.1088 11.4248 19.8631 12.8482 17.617 14.271C16.2134 15.1601 14.8094 16.0486 13.4053 16.9371C11.8967 17.8916 10.3882 18.8463 8.87847 19.7991C8.71699 19.901 8.62895 19.9933 8.73103 20.2114C9.30577 21.4394 9.86251 22.6757 10.4291 23.9076C11.0056 25.1612 11.5822 26.4149 12.1686 27.664C12.3063 27.9572 12.4246 28.267 12.6691 28.5631C12.8165 28.1505 12.8339 27.7704 12.8833 27.3999C13.0472 26.1702 13.1832 24.9366 13.3566 23.7084C13.4013 23.3919 13.4089 23.0562 13.6895 22.7953C14.8924 21.6765 16.011 20.4716 17.2085 19.3452C18.5212 18.1104 19.7596 16.7975 21.0823 15.571C22.0057 14.7148 22.8511 13.7793 23.7779 12.9233C24.9929 11.8011 26.115 10.5814 27.3341 9.45983C28.1976 8.66543 29.0114 7.81569 29.825 6.96919C30.1116 6.67103 30.5161 6.48987 30.7353 6.03813C30.0143 6.36814 29.4228 6.80678 28.8022 7.19317C27.3289 8.11045 25.8644 9.04178 24.3547 10.0017ZM19.9805 8.74913C14.239 11.0844 8.49746 13.4197 2.67834 15.7865C2.95857 15.9446 3.14055 16.0454 3.3207 16.1493C4.65363 16.9183 5.98684 17.6869 7.31822 18.4585C7.5236 18.5776 7.70548 18.6211 7.93168 18.4754C9.51734 17.4541 11.1081 16.4406 12.7012 15.4309C14.8459 14.0717 16.9949 12.7194 19.1407 11.3621C21.7867 9.6884 24.4344 8.01745 27.0739 6.33359C27.569 6.01771 28.1067 5.75659 28.521 5.31692C27.2327 5.80716 25.96 6.32636 24.6861 6.84245C23.1352 7.47078 21.5832 8.09648 19.9805 8.74913ZM16.1515 26.5096C16.2873 26.2638 16.5488 26.1033 16.6363 25.7795C16.0832 25.4359 15.5265 25.0856 14.888 24.7807C14.707 26.1035 14.5318 27.3849 14.3565 28.6663C14.3784 28.679 14.4003 28.6918 14.4222 28.7045C14.9861 27.9855 15.5499 27.2666 16.1515 26.5096Z" fill="white"/>
<path d="M0.0742188 36.9212C0.313578 36.7262 0.494897 36.4784 0.835604 36.4825C1.15796 36.4863 1.4328 36.5655 1.5772 36.8597C1.7185 37.1476 1.71667 37.4531 1.52283 37.7329C1.45772 37.8269 1.31869 37.9038 1.46974 38.0577C1.02035 38.0738 0.556326 38.0738 0.0742188 38.0738C0.0742188 37.7014 0.0742188 37.3288 0.0742188 36.9212Z" fill="white"/>
<path d="M12.7256 38.074C12.4642 37.821 12.3179 37.5487 12.3638 37.1843C12.41 36.8178 12.675 36.5696 13.0901 36.5646C13.5817 36.5586 13.8691 36.773 13.9042 37.1612C13.9329 37.4785 13.8861 37.7717 13.665 38.0484C13.3573 38.074 13.0586 38.074 12.7256 38.074Z" fill="white"/>
<path d="M7.05422 32.2889C5.92939 33.4206 4.82359 34.534 3.71661 35.6462C3.41848 35.9457 3.05448 36.0337 2.66211 35.9029C2.10421 35.7167 2.0122 34.935 2.49146 34.4497C3.24691 33.6848 4.014 32.9313 4.77489 32.1718C5.79809 31.1504 6.82231 30.13 7.84069 29.1038C8.03906 28.9039 8.26316 28.7551 8.5372 28.7136C8.85468 28.6654 9.1249 28.7847 9.30633 29.0518C9.4963 29.3315 9.48899 29.6295 9.32957 29.9246C9.13136 30.2915 8.79703 30.538 8.5157 30.8298C8.04405 31.3189 7.55471 31.791 7.05422 32.2889Z" fill="white"/>
<path d="M17.4818 34.1807C16.9842 34.6805 16.5044 35.1611 16.0267 35.6437C15.8673 35.8047 15.6812 35.9201 15.4651 35.9848C15.1634 36.0752 14.9082 35.9837 14.6889 35.7724C14.4754 35.5667 14.4098 35.3102 14.4757 35.0298C14.5362 34.7718 14.6961 34.5673 14.8825 34.3815C15.9754 33.2919 17.0694 32.2034 18.1559 31.1075C18.4439 30.8171 18.7863 30.7287 19.17 30.7842C19.6211 30.8495 19.8722 31.4961 19.6213 31.9471C19.5389 32.0952 19.4243 32.2305 19.3046 32.352C18.7069 32.959 18.1025 33.5595 17.4818 34.1807Z" fill="white"/>
<path d="M4.15821 25.0137C3.9497 25.2074 3.79011 25.4147 3.55823 25.5448C3.22233 25.7333 2.78628 25.7042 2.53385 25.4654C2.27846 25.2237 2.22918 24.7493 2.43297 24.4115C2.49609 24.3069 2.57296 24.2071 2.65894 24.1203C3.24194 23.5321 3.82704 22.9459 4.41614 22.3637C4.58232 22.1995 4.75991 22.0419 5.01032 22.0202C5.36777 21.9893 5.70751 22.0052 5.90443 22.3785C6.05858 22.6708 5.97443 23.1847 5.6957 23.4719C5.19643 23.9865 4.68393 24.4882 4.15821 25.0137Z" fill="white"/>
<path d="M1.72706 26.7553C1.72425 26.9823 1.77051 27.1848 1.69694 27.372C1.56147 27.7166 1.1347 27.8817 0.691977 27.775C0.32189 27.6858 0.13153 27.3065 0.198953 26.7928C0.241703 26.4671 0.52442 26.2662 0.91169 26.2429C1.30184 26.2193 1.57939 26.3504 1.72706 26.7553Z" fill="white"/>
</g>
<defs>
<clipPath id="clip0_9_15976">
<rect width="38" height="38" fill="white"/>
</clipPath>
</defs>
</svg>
