<svg width="32" height="33" viewBox="0 0 32 33" fill="none" xmlns="http://www.w3.org/2000/svg">
<path d="M4.97806 16.3035C4.58078 16.3035 4.18387 16.1482 3.88894 15.8773C3.67782 15.6834 3.42605 15.3447 3.42605 14.8333C3.42605 14.2025 3.85328 13.6442 4.48878 13.443L15.3115 10.0221C15.529 9.95339 15.764 9.95339 15.9816 10.0221L20.9061 11.5788V4.94567C20.9054 2.21395 18.5507 0 15.646 0C14.1935 0 12.879 0.553655 11.9272 1.44836C10.9753 2.34339 10.3866 3.57948 10.3866 4.94534V6.69316L13.8119 5.61033V4.94534C13.8119 4.48491 14.0027 4.05198 14.3493 3.72602C14.6956 3.4004 15.1563 3.22099 15.646 3.22099C16.1356 3.22099 16.596 3.4004 16.9427 3.72602C17.2889 4.05164 17.4801 4.48491 17.4801 4.94534V7.09725L15.9812 6.62374C15.8724 6.5892 15.759 6.5721 15.646 6.5721C15.5329 6.5721 15.4199 6.5892 15.3111 6.62341L3.39716 10.3893C1.36728 11.0312 0 12.8196 0 14.833C0 16.1707 0.58236 17.3434 1.49566 18.1818C2.40897 19.0201 3.65321 19.5241 4.9777 19.5241C5.50229 19.5241 6.03972 19.445 6.57358 19.276L8.88804 18.5446V15.1465L5.48232 16.223C5.31435 16.276 5.1446 16.3035 4.97806 16.3035Z" fill="#333333"/>
<path d="M30.3549 12.0969C29.7594 11.3179 28.9103 10.7106 27.8953 10.3893L22.4041 8.65393V12.052L26.8037 13.4427C27.4392 13.6435 27.8664 14.2022 27.8664 14.833C27.8664 15.3444 27.6147 15.6831 27.4036 15.8769C27.1083 16.1482 26.7114 16.3035 26.3144 16.3035C26.1479 16.3035 25.9781 16.2763 25.8102 16.2233L15.9814 13.1164C15.8726 13.0822 15.7596 13.0651 15.6462 13.0651C15.5327 13.0651 15.4201 13.0822 15.3109 13.1164L10.3867 14.6727V28.0543C10.3867 30.7857 12.7415 33 15.6462 33C17.0987 33 18.4132 32.4464 19.365 31.5513C20.3168 30.6566 20.9056 29.4199 20.9056 28.0543V19.558L17.4802 18.4755V28.0547C17.4802 28.5151 17.2895 28.9484 16.9428 29.274C16.5965 29.5996 16.1358 29.779 15.6462 29.779C15.1565 29.779 14.6961 29.5999 14.3495 29.274C14.0032 28.9484 13.8121 28.5151 13.8121 28.0547V16.9886L15.3109 16.5151C15.4197 16.4806 15.5327 16.4635 15.6462 16.4635C15.7596 16.4635 15.8722 16.4806 15.9814 16.5151L24.7186 19.2767C25.2524 19.4457 25.7898 19.5248 26.3144 19.5248C28.9631 19.5248 31.2925 17.5084 31.2925 14.8333C31.2925 13.8266 30.9498 12.8756 30.3549 12.0969Z" fill="#333333"/>
</svg>
